{"asset":{"version":"2.0","generator":"THREE.GLTFExporter"},"scenes":[{"nodes":[0],"name":"AuxScene"}],"scene":0,"nodes":[{"mesh":0}],"bufferViews":[{"buffer":0,"byteOffset":0,"byteLength":2952,"target":34962,"byteStride":12},{"buffer":0,"byteOffset":2952,"byteLength":2952,"target":34962,"byteStride":12}],"buffers":[{"byteLength":5904,"uri":"data:application/octet-stream;base64,"}],"accessors":[{"bufferView":0,"componentType":5126,"count":246,"max":[15.654001235961914,0.05400500074028969,9.928001403808594],"min":[-13.745999336242676,0.05400500074028969,-29.472000122070312],"type":"VEC3"},{"bufferView":1,"componentType":5126,"count":246,"max":[0,1,0],"min":[0,1,0],"type":"VEC3"}],"materials":[{"pbrMetallicRoughness":{"baseColorFactor":[0.5019607843137255,0.5019607843137255,0.5019607843137255,1],"metallicFactor":0,"roughnessFactor":1}}],"meshes":[{"primitives":[{"mode":4,"attributes":{"POSITION":0,"NORMAL":1},"material":0}]}]}